<?xml version="1.0" encoding="UTF-8"?><svg id="Layer_2" xmlns="http://www.w3.org/2000/svg" viewBox="0 0 100.4 334.95"><defs><style>.cls-1{fill:#1b3f63;}.cls-1,.cls-2{stroke-width:0px;}.cls-2{fill:#ed7a30;}</style></defs><g id="Layer_4"><path class="cls-2" d="m13.52,47.08c1.98,5.86,3.7,11.74,5.96,17.41,1.73,4.36,3.74,8.67,7.23,12.06,2.8,2.72,4.18,2.97,5.9-.32,3.41-6.52,6.64-13.18,9.36-20.02,2.73-6.87,4.19-14.14,4.58-21.58.62-11.67-1.28-22.83-6.53-33.34-.15-.29-.28-.59-.1-1.3.83.65,1.72,1.24,2.48,1.97,8.51,8.28,17.27,16.31,25.41,24.94,9.94,10.53,18.72,22.03,25.04,35.18,4.66,9.69,7.56,19.95,7.56,30.72,0,12.16-3.48,23.5-10.54,33.46-3.83,5.39-8.38,10.27-12.63,15.37-.36.43-.86.73-1.56,1.01,3.43-10.27,4.6-20.73,3.28-31.43-1.34-10.84-5.13-20.57-12.33-28.77-.33.05-.66.09-.98.14-.13,1.15-.3,2.3-.39,3.45-.55,7.11-.63,14.3-1.75,21.32-1.26,7.89-3.67,15.56-9.16,21.76-1.31,1.48-2.78,2.92-4.45,3.92-.91.55-2.65.64-3.58.13-8.64-4.73-15.72-11.1-20.11-20.1-.76-1.55-1.08-3.31-1.72-4.93-.26-.67-.82-1.23-1.24-1.84-.37.59-.92,1.13-1.09,1.77-1.84,6.77-1.26,13.51,1.63,19.73,2.28,4.91,5.63,9.33,8.51,13.97.3.48.63.95.94,1.42-.13.23-.25.46-.38.68-3.12-1.49-6.43-2.69-9.34-4.52-10.06-6.32-17.3-15.11-20.73-26.52-2.49-8.29-3.74-16.89-1.94-25.61,1.24-6.01,2-12.16,3.84-17.98,2.32-7.34,5.5-14.41,8.33-21.58.1-.26.38-.45.5-.58Z"/><path class="cls-1" d="m37.3,213.32c10.13,0,19.69.01,29.24-.01,1.48,0,1.59.81,1.49,1.95-.7,7.79-1.4,15.57-2.08,23.36-1.57,17.98-3.13,35.95-4.68,53.93-1.06,12.26-2.07,24.52-3.14,36.78-.3,3.43-2.59,5.68-5.52,5.63-2.98-.05-4.96-2.33-5.27-5.82-1.58-18.14-3.23-36.27-4.8-54.41-1.48-17.07-2.91-34.14-4.37-51.2-.28-3.28-.56-6.57-.87-10.19Z"/><path class="cls-1" d="m53.01,155.49c9.3,0,18.61,0,27.91,0,.91,0,1.83,0,2.74.06,4.32.28,6.39,3.7,4.34,7.51-2.95,5.48-6.15,10.83-9.2,16.26-1.46,2.6-2.88,5.24-4.18,7.92-.66,1.36-1.44,1.98-3.03,1.97-12.63-.06-25.25,0-37.88-.09-.87,0-2.12-.64-2.53-1.36-4.46-7.78-8.79-15.64-13.15-23.47-.2-.36-.4-.73-.59-1.1-2.03-3.93-.05-7.45,4.42-7.65,3.15-.14,6.31-.06,9.47-.06,7.23,0,14.45,0,21.68,0Z"/><path class="cls-1" d="m34.82,197.45h35.71c-.47,2.39-.84,4.64-1.4,6.84-.1.39-1.02.8-1.56.8-9.89.05-19.79.06-29.68,0-.56,0-1.48-.57-1.62-1.06-.59-2.05-.94-4.17-1.45-6.58Z"/></g></svg>