<?xml version="1.0" encoding="UTF-8"?><svg id="Layer_2" xmlns="http://www.w3.org/2000/svg" viewBox="0 0 124.73 46.25"><defs><style>.cls-1{fill:#f18819;}.cls-2{fill:#2b3f44;}</style></defs><g id="Layer_1-2"><path class="cls-2" d="M47.11,41.6c0-.4.17-.55.6-.55h2.17c.2,0,.33.11.33.29s-.13.29-.33.29h-2.12v1.63h1.99c.2,0,.33.11.33.29s-.13.28-.33.28h-1.99v1.73h2.12c.2,0,.33.12.33.29s-.13.29-.34.29h-2.17c-.43,0-.6-.16-.6-.55v-4Z"/><path class="cls-2" d="M55.01,46.15h-2.1c-.43,0-.6-.16-.6-.55v-4.23c0-.22.12-.36.33-.36s.33.14.33.36v4.19h2.05c.21,0,.34.12.34.29s-.13.29-.34.29Z"/><path class="cls-2" d="M59.28,45.91c0-.08.02-.15.05-.24l1.54-4.29c.09-.26.22-.38.46-.38s.37.12.46.38l1.54,4.29c.03.08.05.16.05.23,0,.18-.12.28-.31.28-.18,0-.28-.09-.35-.31l-.43-1.28h-1.91l-.43,1.28c-.07.22-.17.31-.35.31s-.31-.11-.31-.28ZM62.11,44.09l-.77-2.27h-.03l-.77,2.27h1.56Z"/><path class="cls-2" d="M65.29,45.82v-4.41c0-.27.13-.42.36-.42.2,0,.29.08.43.42l1.53,3.64h.02l1.53-3.64c.14-.34.23-.42.43-.42.22,0,.35.15.35.42v4.41c0,.24-.1.36-.3.36s-.29-.12-.29-.36v-3.42h-.03l-1.26,2.96c-.13.3-.25.4-.44.4s-.31-.1-.44-.4l-1.27-2.96h-.03v3.42c0,.24-.1.36-.3.36s-.29-.12-.29-.36Z"/><path class="cls-2" d="M71.87,45.91c0-.08.02-.15.05-.24l1.54-4.29c.09-.26.22-.38.46-.38s.37.12.46.38l1.54,4.29c.03.08.05.16.05.23,0,.18-.12.28-.31.28-.18,0-.28-.09-.35-.31l-.43-1.28h-1.91l-.43,1.28c-.07.22-.17.31-.35.31s-.31-.11-.31-.28ZM74.69,44.09l-.77-2.27h-.03l-.77,2.27h1.56Z"/><path class="cls-2" d="M77.86,41.6c0-.4.17-.55.6-.55h1.04c1.47,0,2.24.87,2.24,2.55s-.77,2.55-2.24,2.55h-1.04c-.43,0-.6-.16-.6-.55v-4ZM79.46,45.56c1.08,0,1.6-.65,1.6-1.97s-.53-1.97-1.6-1.97h-.95v3.94h.95Z"/><path class="cls-2" d="M83.57,43.24c0-1.42.79-2.31,2.04-2.31s2.04.89,2.04,2.31v.75c0,1.4-.78,2.26-2.04,2.26s-2.04-.86-2.04-2.26v-.75ZM84.22,44c0,1.04.53,1.67,1.39,1.67s1.39-.63,1.39-1.67v-.75c0-1.07-.53-1.72-1.39-1.72s-1.39.66-1.39,1.72v.75Z"/><path class="cls-2" d="M92.38,41.6c0-.4.17-.55.6-.55h1.04c1.47,0,2.24.87,2.24,2.55s-.77,2.55-2.24,2.55h-1.04c-.43,0-.6-.16-.6-.55v-4ZM93.99,45.56c1.08,0,1.6-.65,1.6-1.97s-.53-1.97-1.6-1.97h-.95v3.94h.95Z"/><path class="cls-2" d="M98.29,41.6c0-.4.17-.55.6-.55h2.17c.2,0,.33.11.33.29s-.13.29-.33.29h-2.12v1.63h1.99c.2,0,.33.11.33.29s-.13.28-.33.28h-1.99v1.73h2.12c.2,0,.33.12.33.29s-.13.29-.34.29h-2.17c-.43,0-.6-.16-.6-.55v-4Z"/><path class="cls-2" d="M106.1,41.6c0-.4.17-.55.6-.55h1.04c1.47,0,2.24.87,2.24,2.55s-.77,2.55-2.24,2.55h-1.04c-.43,0-.6-.16-.6-.55v-4ZM107.71,45.56c1.08,0,1.6-.65,1.6-1.97s-.53-1.97-1.6-1.97h-.95v3.94h.95Z"/><path class="cls-2" d="M112.02,45.82v-4.46c0-.22.12-.36.33-.36s.33.14.33.36v4.46c0,.22-.13.36-.33.36s-.33-.14-.33-.36Z"/><path class="cls-2" d="M114.78,43.24c0-1.42.79-2.31,2.04-2.31s2.04.89,2.04,2.31v.75c0,1.4-.78,2.26-2.04,2.26s-2.04-.86-2.04-2.26v-.75ZM115.43,44c0,1.04.53,1.67,1.39,1.67s1.39-.63,1.39-1.67v-.75c0-1.07-.53-1.72-1.39-1.72s-1.39.66-1.39,1.72v.75Z"/><path class="cls-2" d="M120.97,44.78c.15,0,.26.08.4.29.26.41.65.6,1.21.6.7,0,1.13-.31,1.13-.83,0-.43-.27-.7-.84-.86l-.86-.23c-.82-.22-1.23-.67-1.23-1.35,0-.88.71-1.47,1.75-1.47.53,0,1.01.16,1.33.44.25.22.39.49.39.73,0,.18-.11.3-.28.3-.15,0-.25-.07-.31-.22-.17-.42-.59-.67-1.11-.67-.66,0-1.09.33-1.09.84,0,.38.25.65.73.78l.85.23c.92.25,1.32.68,1.32,1.4,0,.92-.7,1.49-1.82,1.49-.6,0-1.12-.16-1.44-.45-.27-.24-.41-.49-.41-.71,0-.19.12-.31.28-.31Z"/><rect class="cls-1" x="60.76" y="36.56" width="49.65" height="1"/></g><g id="Layer_2-2"><path class="cls-1" d="M19.85.59c-.2-.22-.48-.35-.77-.35h-6.01l-.07.08,28.87,31.46c.68.74,1.85.22,1.85-.83v-3.85c0-.31-.11-.61-.32-.83L19.85.59Z"/><path class="cls-1" d="M0,.33l41.84,45.56c.68.74,1.85.22,1.85-.83v-3.76c0-.31-.11-.61-.32-.83L6.85.59c-.2-.22-.48-.35-.77-.35H.07"/><line class="cls-1" x1=".07" y1=".25" y2=".33"/><path class="cls-2" d="M43.73,12.28l-.04-.04V1.43c0-.65-.48-1.18-1.08-1.18h-2.5c-.6,0-1.08.53-1.08,1.18v5.27c0,.17-.19.25-.29.13l-5.72-6.24c-.2-.22-.48-.35-.77-.35h-5.93s-.11.13-.08.16c.74.78,12.47,13.59,12.47,13.59.2.22.32.52.32.83v27.54c0,.31.12.62.32.84l2.5,2.7c.68.74,1.84.21,1.84-.84v-25.64l.04.04v-7.19Z"/><path class="cls-2" d="M46.44,9.05c0-.37.3-.7.7-.7h14.58c.41,0,.7.33.7.7v1.07c0,.37-.3.7-.7.7h-12.43v9.03h10.62c.37,0,.7.33.7.7v1.07c0,.41-.33.7-.7.7h-10.62v9.44h12.43c.41,0,.7.33.7.7v1.07c0,.37-.3.7-.7.7h-14.58c-.41,0-.7-.33-.7-.7V9.05Z"/><path class="cls-2" d="M68.35,9.05c0-.37.3-.7.67-.7h8.29c7.14,0,12.99,5.81,12.99,12.91s-5.85,12.99-12.99,12.99h-8.29c-.37,0-.67-.33-.67-.7V9.05ZM76.71,31.7c6.07,0,10.47-4.33,10.47-10.43s-4.4-10.4-10.47-10.4h-5.55v20.83h5.55Z"/><path class="cls-2" d="M94.36,20.15c0-.37.33-.7.7-.7h1.15c.37,0,.7.33.7.7v13.4c0,.37-.33.7-.7.7h-1.15c-.37,0-.7-.33-.7-.7v-13.4Z"/><path class="cls-2" d="M102.79,9.05c0-.37.3-.7.67-.7h8.29c7.14,0,12.99,5.81,12.99,12.91s-5.85,12.99-12.99,12.99h-8.29c-.37,0-.67-.33-.67-.7V9.05ZM111.15,31.7c6.07,0,10.47-4.33,10.47-10.43s-4.4-10.4-10.47-10.4h-5.55v20.83h5.55Z"/><path class="cls-1" d="M92.76,0c.22.25.33.38.44.51,1.29,1.42,1.33,2.55.15,4.08-.47.61-.95,1.2-1.39,1.83-2.45,3.53-.56,7.9,3.61,8.34,1.01.11,1.98-.07,2.77-.58-.72,0-1.48.06-2.23-.01-1.99-.18-3.33-1.58-3.28-3.48.06-2.51,1.47-4.32,3.21-6.02.81.87,1.44,1.72,1.55,2.87.11,1.2-.56,2.06-1.39,2.94,1.93-.33,2.98-1.83,2.65-3.74-.33-1.93-1.19-3.64-2.56-5.03-.92-.93-2-1.59-3.53-1.7"/><path class="cls-1" d="M97.69,3.12c4.98,9.09-2.28,8.9-3.98,8.75,0,0,0,0,0,0h0c-.22-.02-.35-.04-.35-.04v.31c.59.58,1.15.97,1.68,1.21.12.06.25.11.38.15.76.25,1.43.21,2,.03,1.08-.29,2.04-1.16,2.45-2.21,1.97-4.22-2.18-8.19-2.18-8.19Z"/></g></svg>