<?xml version="1.0" encoding="UTF-8"?><svg id="Layer_2" xmlns="http://www.w3.org/2000/svg" viewBox="0 0 856.49 875.05"><defs><style>.cls-1{fill:#f8f7f7;stroke-width:0px;}</style></defs><g id="logoSimpleWhite"><path class="cls-1" d="m262.08,427.75c3.58-5.38,5.95-10.71,7.08-15.99,1.14-5.28,1.96-12.74,2.47-22.38l1.77-36.76h-34.41l-1.27,26.52c-.59,13.1-1.56,22.26-2.91,27.5-1.35,5.24-4.22,9.42-8.6,12.56-4.39,3.14-9.45,4.7-15.18,4.7,0-1.78-.13-4.82-.38-9.12-.59-9.91-.93-17.49-1.01-22.73l-.25-39.43h-35.17l1.52,50.37c0,34.33,6.94,60,20.81,77.03,13.87,17.03,32.66,25.54,56.36,25.54,18.3,0,33.33-4.21,45.1-12.63,11.76-8.42,20.16-18.38,25.17-29.89,5.02-11.51,8.45-29.32,10.31-53.46l4.43-56.96h-34.92l-3.67,54.58c-1.86,26.47-6.54,44.55-14.04,54.23-7.51,9.68-18.47,14.52-32.89,14.52-8.52,0-16.26-2.6-23.21-7.79-6.96-5.19-11.28-11.62-12.97-19.29,12.06-1.12,21.82-3.58,29.29-7.37,7.46-3.79,12.99-8.37,16.57-13.75Z"/><rect class="cls-1" x="366" y="424.18" width="35.55" height="77.31"/><path class="cls-1" d="m606.43,427.75c3.58-5.38,5.95-10.71,7.08-15.99,1.14-5.28,1.96-12.74,2.47-22.38l1.77-36.76h-34.41l-1.27,26.52c-.59,13.1-1.56,22.26-2.91,27.5-1.35,5.24-4.22,9.42-8.6,12.56-4.39,3.14-9.45,4.7-15.18,4.7,0-1.78-.13-4.82-.38-9.12-.59-9.91-.93-17.49-1.01-22.73l-.25-39.43h-35.17l1.52,50.37c0,34.33,6.94,60,20.81,77.03,13.87,17.03,32.66,25.54,56.36,25.54,18.3,0,33.33-4.21,45.1-12.63,11.76-8.42,20.16-18.38,25.17-29.89,5.02-11.51,8.45-29.32,10.31-53.46l4.43-56.96h-34.92l-3.67,54.58c-1.86,26.47-6.54,44.55-14.04,54.23-7.51,9.68-18.47,14.52-32.89,14.52-8.52,0-16.26-2.6-23.21-7.79-6.96-5.19-11.28-11.62-12.97-19.29,12.06-1.12,21.82-3.58,29.29-7.37,7.46-3.79,12.99-8.37,16.57-13.75Z"/><polygon class="cls-1" points="434.42 39.59 428.75 59.16 439.5 59.41 434.72 39.59 434.42 39.59"/><path class="cls-1" d="m171.91,166.3c-3.56-3.05-7.06-4.71-10.49-4.98-3.43-.27-6.23.86-8.4,3.4-2.17,2.53-2.86,5.47-2.06,8.83.79,3.35,2.97,6.55,6.53,9.6,3.54,3.03,7.02,4.69,10.45,4.97,3.43.28,6.23-.86,8.42-3.41,2.18-2.55,2.88-5.5,2.08-8.84s-2.97-6.53-6.51-9.56Z"/><path class="cls-1" d="m268.21,79.94c-3.09-1.52-6.11-1.5-9.06.05-2.95,1.55-4.68,4.03-5.18,7.44-.5,3.41.34,7.19,2.52,11.33,2.17,4.13,4.8,6.95,7.88,8.47,3.08,1.52,6.11,1.5,9.08-.06,2.97-1.56,4.7-4.05,5.19-7.45.49-3.4-.35-7.17-2.52-11.29-2.18-4.15-4.82-6.98-7.91-8.5Z"/><path class="cls-1" d="m656.26,121.45l-5.1-4.22-8.78,10.6,5.07,4.2c1.72,1.42,3.47,2.06,5.27,1.92,1.79-.14,3.34-1,4.66-2.59,1.29-1.56,1.84-3.27,1.64-5.11-.2-1.84-1.12-3.44-2.76-4.8Z"/><path class="cls-1" d="m428.25,0C191.73,0,0,191.73,0,428.25c0,169.02,97.92,315.15,240.12,384.8l.06,55.22c0,4.68.3,6.79,4.98,6.79l112.88-22.21c2.06-.47,3.85-.73,5.21-1.27.92.14,1.84.28,2.76.42v-293.38c0-4.68-3.89-4.26-9.26-5.3l-109.55-27.25c-4.68,0-7.4,3.02-7.4,7.7l.18,152.03c-79.27-58.04-130.75-151.77-130.75-257.54,0-176.19,142.83-319.03,319.03-319.03s319.03,142.83,319.03,319.03c0,154.58-109.95,283.44-255.9,312.74v-315.41c0-17.21-2.38-30.7-7.15-40.48-4.77-9.77-12.71-17.91-23.85-24.41-11.13-6.5-26.86-9.75-47.19-9.75-18.72,0-34.96,1.36-48.7,4.07l2.53,31.57c14.42-2.34,27.75-3.51,39.98-3.51,16.36,0,28.61,3.49,36.75,10.45,8.14,6.97,12.21,19.57,12.21,37.81v314.73s-.02,0-.04,0v109.54s.04,0,.06,0h0s.04,0,.04,0c11.91-.76,23.68-2.01,35.3-3.73h.07c206.58-30.53,365.12-208.56,365.12-423.63C856.49,191.73,664.76,0,428.25,0Zm-157.63,662.32c5.12,0,9.26,10.61,9.26,23.7,0,9.7-2.28,18.04-5.54,21.7-3.62-2-7.19-4.05-10.72-6.18-1.41-4.16-2.27-9.58-2.27-15.52,0-13.09,4.15-23.7,9.27-23.7Zm-119.63-421.6l-14.68-8.94-41.3-3.45,8.86-14.55,23.73,3.31.16-.26-13.84-19.56,8.66-14.23,22.02,35.11,14.68,8.94-8.29,13.62Zm35.01-47.75c-5.48,6.4-11.72,9.82-18.72,10.27-7,.45-13.79-2.13-20.36-7.76-6.57-5.63-10.17-11.94-10.8-18.95-.63-7.01,1.78-13.7,7.25-20.08,5.46-6.38,11.7-9.79,18.73-10.25,7.02-.45,13.82,2.13,20.38,7.76,6.57,5.63,10.16,11.94,10.78,18.94.62,7-1.8,13.69-7.26,20.07Zm59.25-60.27c-1.42,5.22-5.01,10.02-10.75,14.4-5.82,4.44-11.24,6.73-16.28,6.87-5.03.14-9.2-1.93-12.49-6.2l11.99-9.15c1.09,1.06,2.57,1.47,4.45,1.24,1.87-.23,3.68-1.01,5.41-2.33,1.87-1.43,3.1-2.9,3.69-4.43.59-1.52.48-2.81-.33-3.87-.76-1-1.79-1.42-3.09-1.26-1.3.16-3.29.92-5.96,2.3l-6.48,3.34c-4.46,2.33-8.58,3.21-12.36,2.62-3.78-.59-6.95-2.57-9.54-5.96-3.28-4.3-4.26-9.01-2.93-14.13,1.33-5.11,4.61-9.66,9.83-13.65,5.68-4.33,11.01-6.48,15.99-6.44,4.98.04,9.11,2.16,12.37,6.36l-11.57,8.83c-1.04-1.28-2.44-1.87-4.18-1.75-1.74.12-3.49.84-5.24,2.18-1.65,1.26-2.73,2.58-3.22,3.97-.49,1.38-.32,2.61.5,3.69.78,1.02,1.85,1.47,3.22,1.37,1.37-.1,3.23-.76,5.58-1.99l6.69-3.5c4.75-2.46,8.89-3.44,12.44-2.94,3.55.49,6.66,2.5,9.33,6,3.36,4.4,4.33,9.21,2.9,14.43Zm48.28-30.24c-2.01,6.74-6.73,12.06-14.16,15.97-7.45,3.92-14.52,4.8-21.2,2.63-6.68-2.17-12.03-7.08-16.05-14.73-4.03-7.65-5.04-14.85-3.04-21.6,2-6.75,6.72-12.07,14.15-15.98,7.43-3.91,14.49-4.78,21.19-2.61,6.69,2.17,12.05,7.08,16.08,14.74s5.04,14.85,3.03,21.58Zm40.17-7.52l-15.12,5.04-5.43-16.3-29.3-29.31,16.16-5.38,15.98,17.86.29-.1,2.07-23.87,15.8-5.27-5.87,41.03,5.43,16.3Zm34.33-8.82l-6.92-53.81,15.81-2.03,5.3,41.24,21.11-2.71,1.62,12.57-36.92,4.74Zm76.68-4.56l-2.57-10.85-16.54-.38-3.07,10.72-16.24-.37,18.94-53.84,20,.46,16.47,54.64-16.99-.39Zm85.28-20.2c-1.35,5.78-4.34,9.98-8.97,12.57-4.62,2.6-10.04,3.17-16.23,1.72l-7.54-1.77-3.38,14.42-15.52-3.63,12.37-52.82,24.12,5.65c5.91,1.38,10.25,4.24,13.03,8.57,2.78,4.33,3.49,9.43,2.12,15.29Zm35.38,46.1c-5.44,1.73-11.49,1.22-18.14-1.52-6.65-2.74-11.3-6.64-13.94-11.7s-2.79-10.44-.44-16.14l13.31-32.29,14.74,6.07-12.64,30.66c-1.09,2.64-1.29,4.92-.61,6.85.68,1.92,2.22,3.38,4.61,4.36,2.39.98,4.5,1.04,6.34.15,1.84-.88,3.31-2.64,4.39-5.28l12.64-30.66,14.74,6.07-13.31,32.29c-2.35,5.7-6.25,9.42-11.69,11.14Zm9.05,9.53l28.08-46.42,32.75,19.81-6.56,10.84-19.11-11.56-4.53,7.5,17.92,10.84-5.92,9.78-17.92-10.84-4.51,7.46,19.11,11.56-6.56,10.84-32.75-19.81Zm79.17,30.71l-5.18,22.41-13.73-11.37,5-19.48-4.03-3.33-11.61,14.02-12.28-10.17,34.6-41.79,18.56,15.37c5.52,4.57,8.69,9.28,9.51,14.13s-.64,9.53-4.38,14.04c-2.09,2.53-4.62,4.37-7.58,5.53-2.96,1.16-5.93,1.37-8.9.64Zm4.79,33.81l31.03-27.69-9.51-10.66,9.45-8.44,29.64,33.21-9.45,8.44-9.51-10.66-31.03,27.69-10.61-11.89Zm47.56,63.48l-9.47-14.11,7.39-8.36-9.22-13.73-10.53,3.68-9.06-13.48,54.91-15.55,11.15,16.6-35.17,44.95Z"/><polygon class="cls-1" points="705.58 204.94 711.58 213.86 725.02 198.54 724.85 198.29 705.58 204.94"/><path class="cls-1" d="m507.97,48.22l-4.47-1.05-3.57,15.27,4.36,1.02c2.61.61,4.79.43,6.54-.54,1.75-.97,2.91-2.7,3.49-5.19.58-2.46.3-4.52-.82-6.16-1.12-1.64-2.96-2.76-5.53-3.36Z"/></g></svg>